<?xml version="1.0" encoding="UTF-8" standalone="no"?>
<!-- Created with Inkscape (http://www.inkscape.org/) -->

<svg
   width="52.91666mm"
   height="20.108332mm"
   viewBox="0 0 52.916661 20.108332"
   version="1.1"
   id="svg331"
   inkscape:version="1.2.2 (1:1.2.2+202212051552+b0a8486541)"
   sodipodi:docname="cactus-black4.svg"
   xmlns:inkscape="http://www.inkscape.org/namespaces/inkscape"
   xmlns:sodipodi="http://sodipodi.sourceforge.net/DTD/sodipodi-0.dtd"
   xmlns="http://www.w3.org/2000/svg"
   xmlns:svg="http://www.w3.org/2000/svg">
  <sodipodi:namedview
     id="namedview333"
     pagecolor="#ffffff"
     bordercolor="#000000"
     borderopacity="0.25"
     inkscape:showpageshadow="2"
     inkscape:pageopacity="0.0"
     inkscape:pagecheckerboard="0"
     inkscape:deskcolor="#d1d1d1"
     inkscape:document-units="mm"
     showgrid="false"
     inkscape:zoom="0.75722503"
     inkscape:cx="220.5421"
     inkscape:cy="152.53062"
     inkscape:window-width="1846"
     inkscape:window-height="1016"
     inkscape:window-x="74"
     inkscape:window-y="27"
     inkscape:window-maximized="1"
     inkscape:current-layer="layer1" />
  <defs
     id="defs328" />
  <g
     inkscape:label="Layer 1"
     inkscape:groupmode="layer"
     id="layer1"
     transform="translate(-46.746352,-108.17534)">
    <g
       transform="matrix(0.03689773,0,0,-0.04851689,45.63942,131.48952)"
       fill="#6aa84f"
       stroke="none"
       id="g18"
       inkscape:export-filename="cactus-black3.svg"
       inkscape:export-xdpi="50.204163"
       inkscape:export-ydpi="50.204163">
      <path
         d="M 132,463 C 118,450 99,398 71,292 48,208 30,131 30,121 30,95 63,69 97,68 c 48,-1 74,12 89,48 20,48 18,64 -9,64 -16,0 -26,-9 -34,-30 -10,-28 -39,-40 -55,-24 -8,8 65,281 79,295 19,19 46,2 41,-26 -5,-22 -2,-25 23,-25 17,0 29,5 29,13 0,6 3,22 6,34 14,52 -87,86 -134,46 z m 103,-24 c 11,-17 -1,-21 -15,-4 -8,9 -8,15 -2,15 6,0 14,-5 17,-11 z M 86,105 c 17,-16 14,-18 -10,-9 -9,3 -16,10 -16,15 0,13 9,11 26,-6 z"
         id="path4" />
      <path
         d="M 342,463 C 329,451 311,407 293,340 271,259 260,236 248,238 c -9,1 -18,-7 -22,-20 -9,-34 -8,-38 9,-32 19,8 19,-1 0,-62 -8,-27 -15,-50 -15,-51 0,-2 13,-3 28,-3 26,0 29,5 42,58 13,51 18,57 43,60 31,4 32,1 12,-64 -8,-27 -15,-50 -15,-51 0,-2 13,-3 28,-3 29,0 30,2 118,347 14,52 -87,86 -134,46 z m 102,-29 c 5,-14 4,-15 -9,-4 -17,14 -19,20 -6,20 5,0 12,-7 15,-16 z m -28,-19 c 3,-8 -5,-51 -18,-96 -21,-75 -25,-82 -50,-85 -16,-1 -28,0 -28,3 0,17 45,170 53,181 13,16 36,15 43,-3 z M 303,204 c -19,-14 -43,-18 -43,-7 0,3 7,15 17,25 12,14 19,15 30,7 11,-10 10,-14 -4,-25 z m 83,-11 c -10,-10 -19,5 -10,18 6,11 8,11 12,0 2,-7 1,-15 -2,-18 z"
         id="path6" />
      <path
         d="M 552,463 C 538,450 519,398 491,292 468,208 450,131 450,121 c 0,-43 78,-69 128,-42 11,6 27,31 35,56 l 16,45 h -27 c -21,0 -30,-7 -39,-30 -10,-28 -39,-40 -55,-24 -8,8 65,281 79,295 19,19 46,2 41,-26 -5,-22 -2,-25 23,-25 23,0 29,5 31,23 3,42 -2,62 -19,75 -24,18 -87,15 -111,-5 z m 103,-24 c 11,-17 -1,-21 -15,-4 -8,9 -8,15 -2,15 6,0 14,-5 17,-11 z M 515,92 c -6,-8 -35,12 -35,24 0,11 4,10 18,-3 10,-10 18,-19 17,-21 z"
         id="path8" />
      <path
         d="m 706,458 c -9,-34 -8,-35 23,-30 l 28,4 -42,-154 C 652,47 655,70 690,70 c 22,0 30,5 30,18 1,9 20,89 44,177 l 43,160 30,3 c 24,2 32,9 36,28 4,24 4,24 -78,24 -77,0 -83,-1 -89,-22 z m 86,-20 c -9,-9 -15,-9 -24,0 -9,9 -7,12 12,12 19,0 21,-3 12,-12 z"
         id="path10" />
      <path
         d="m 900,475 c 0,-2 -21,-81 -46,-175 -52,-190 -52,-215 -1,-228 31,-9 83,0 99,16 7,7 108,366 108,384 0,5 -11,8 -25,8 -27,0 -23,11 -83,-215 -29,-111 -41,-140 -56,-143 -10,-2 -22,0 -26,5 -4,4 13,86 39,181 l 47,172 h -28 c -15,0 -28,-2 -28,-5 z M 863,106 c 4,-10 1,-13 -9,-9 -7,3 -14,9 -14,14 0,14 17,10 23,-5 z"
         id="path12" />
      <path
         d="m 1113,458 c -21,-24 -43,-97 -43,-142 0,-19 10,-32 40,-51 22,-14 40,-28 40,-31 0,-3 -7,-30 -16,-60 -13,-47 -19,-54 -41,-54 -24,0 -25,2 -19,36 7,34 6,35 -20,32 -22,-2 -30,-10 -36,-36 -18,-68 43,-107 112,-74 29,14 38,27 52,72 22,72 22,117 1,135 -10,7 -28,22 -41,32 -21,17 -22,20 -9,63 11,38 17,45 37,45 21,0 25,-4 22,-27 -2,-24 1,-28 22,-28 39,0 51,63 18,93 -28,25 -94,22 -119,-5 z m 102,-19 c 11,-17 -1,-21 -15,-4 -8,9 -8,15 -2,15 6,0 14,-5 17,-11 z m -95,-140 c 0,-6 -4,-7 -10,-4 -5,3 -10,11 -10,16 0,6 5,7 10,4 6,-3 10,-11 10,-16 z m 50,-41 c 0,-12 -6,-9 -26,13 -19,22 -19,22 4,8 12,-8 22,-17 22,-21 z M 1076,92 c -4,-3 -14,2 -24,12 -16,18 -16,18 6,6 13,-6 21,-14 18,-18 z"
         id="path14" />
      <path
         d="m 1335,392 c 6,-7 -38,-38 -48,-34 -5,1 -6,-2 -3,-7 3,-5 -1,-14 -9,-21 -16,-14 -18,-110 -2,-110 5,0 6,-4 2,-9 -12,-21 47,-51 99,-51 62,1 82,22 89,96 3,42 1,51 -17,61 -12,7 -15,12 -8,13 23,0 -49,58 -79,62 -16,3 -27,2 -24,0 z m 20,-22 c -3,-5 -14,-10 -23,-10 -13,0 -14,-2 -3,-9 9,-6 10,-14 4,-27 -13,-29 -10,-99 5,-99 6,0 12,-3 12,-7 0,-31 -1,-32 -10,-18 -6,10 -10,11 -10,3 0,-7 -4,-13 -10,-13 -5,0 -10,5 -10,11 0,7 -8,18 -17,26 -17,14 -17,14 0,9 16,-5 18,-1 11,39 -4,33 -3,45 6,45 7,0 10,8 7,20 -3,12 1,24 11,30 22,12 35,13 27,0 z m 29,-15 c -4,-9 0,-15 7,-15 12,0 12,-2 0,-9 -8,-5 -12,-18 -8,-30 3,-12 1,-24 -4,-27 -12,-7 -11,-27 2,-61 l 11,-28 9,23 c 5,14 5,31 -1,41 -6,12 -5,22 2,29 9,9 9,12 -2,12 -12,0 -12,3 1,15 16,16 49,11 49,-7 0,-6 -6,-6 -14,1 -12,10 -14,4 -14,-39 -1,-28 -8,-59 -16,-72 -9,-13 -16,-17 -16,-9 0,11 -3,11 -14,2 -13,-11 -15,-6 -14,29 0,23 -5,46 -12,50 -10,6 -10,16 0,46 7,22 14,45 16,52 2,6 8,12 13,12 6,0 8,-7 5,-15 z m 34,-20 c -3,-3 -9,2 -12,12 -6,14 -5,15 5,6 7,-7 10,-15 7,-18 z m -131,-62 c -3,-10 -5,-4 -5,12 0,17 2,24 5,18 2,-7 2,-21 0,-30 z m 173,3 c 0,-3 -4,-8 -10,-11 -5,-3 -10,-1 -10,4 0,6 5,11 10,11 6,0 10,-2 10,-4 z m -20,-73 c -11,-17 -11,-17 -6,0 3,10 6,24 7,30 0,9 2,9 5,0 3,-7 0,-20 -6,-30 z"
         id="path16" />
    </g>
  </g>
</svg>
